Coordinates
version=1
nRows=12
nColumns=42
inDegrees=yes

Units are S.I. units (second, meters, Newtons, ...)
If the header above contains a line with 'inDegrees', this indicates whether rotational values are in degrees (yes) or radians (no).

endheader
time	pelvis_tilt	pelvis_list	pelvis_rotation	pelvis_tx	pelvis_ty	pelvis_tz	hip_flexion_r	hip_adduction_r	hip_rotation_r	knee_angle_r	knee_adduction_r	knee_angle_r_beta	ankle_angle_r	subtalar_angle_r	mtp_angle_r	hip_flexion_l	hip_adduction_l	hip_rotation_l	knee_angle_l	knee_adduction_l	knee_angle_l_beta	ankle_angle_l	subtalar_angle_l	mtp_angle_l	lumbar_extension	lumbar_bending	lumbar_rotation	arm_flex_r	arm_add_r	arm_rot_r	elbow_flex_r	pro_sup_r	wrist_flex_r	wrist_dev_r	arm_flex_l	arm_add_l	arm_rot_l	elbow_flex_l	pro_sup_l	wrist_flex_l	wrist_dev_l
      4.23000000	      4.05929855	     -7.60273957	     -4.55038961	     -0.85714261	      0.83056899	      0.32436620	      4.39913886	      7.92148936	    -29.30519045	     21.49167372	     -4.39486048	      0.37510047	     19.10714130	     33.04840458	     -7.50120676	     11.36726558	    -14.35606037	    -11.20020879	     63.38189335	     -9.88739204	      1.10622273	      3.08578180	     12.19074848	     -7.50120676	    -27.86113144	      7.36915214	      1.44019145	     -8.93309411	     -2.20900684	    -11.92227168	    105.29235454	     90.00000001	      0.00000000	      0.00000000	      2.30380543	     -9.02373461	    -17.52739662	     50.74168980	     90.00000001	      0.00000000	      0.00000000
      4.24000000	      3.92737467	     -7.48553623	     -4.63597156	     -0.85570204	      0.83036693	      0.32471780	      4.44705363	      7.68462167	    -29.43318301	     21.65701981	     -4.24515661	      0.37798630	     19.30551905	     33.48080603	     -7.50114256	     12.62264650	    -14.34839238	    -10.21239287	     64.72406511	     -9.06962274	      1.12964804	      2.67525818	      9.04877925	     -7.50114256	    -27.91951476	      7.31625842	      1.42515593	     -8.89395027	     -2.24778479	    -11.80419305	    105.20990275	     90.00000001	      0.00000000	      0.00000000	      2.36851379	     -8.94907336	    -17.35360936	     50.93899736	     90.00000001	      0.00000000	      0.00000000
      4.25000000	      4.05337477	     -7.35402091	     -4.76218246	     -0.85410259	      0.83047327	      0.32519842	      4.15968355	      7.50512014	    -29.31800404	     21.68863708	     -4.16348276	      0.37853813	     19.27769709	     33.29177252	     -7.50113177	     13.49274419	    -14.46142666	    -10.42997545	     65.58714475	     -9.02530123	      1.14471162	      2.73954255	      8.87599272	     -7.50113177	    -28.25534961	      7.14836320	      1.43223008	     -8.81248364	     -2.23235149	    -11.74703674	    105.11810239	     90.00000001	      0.00000000	      0.00000000	      2.52901883	     -8.94147399	    -17.29191952	     51.04710823	     90.00000001	      0.00000000	      0.00000000
      4.26000000	      3.80125286	     -7.52236767	     -4.86931342	     -0.85265928	      0.83003356	      0.32565827	      4.29399492	      7.74433496	    -29.21710779	     21.67310507	     -4.17839033	      0.37826704	     19.48906371	     33.59315525	     -7.50110419	     14.92051352	    -14.92706573	    -10.76822929	     66.52597838	     -9.26902885	      1.16109736	      3.56611104	      7.16008428	     -7.50110419	    -28.19686296	      7.39098205	      1.54675575	     -8.79281441	     -2.28493787	    -11.70889158	    105.10929309	     90.00000001	      0.00000000	      0.00000000	      2.61418282	     -8.84988045	    -17.16947431	     51.16628706	     90.00000001	      0.00000000	      0.00000000
      4.27000000	      3.82311919	     -7.59945661	     -4.87009454	     -0.85103540	      0.82994478	      0.32598491	      4.07585274	      7.78474979	    -29.29430974	     21.63312377	     -4.06235440	      0.37756924	     19.61826263	     33.67328856	     -7.50109049	     15.95783441	    -15.25454930	    -11.11645769	     67.05306098	     -9.44977038	      1.17029669	      4.09994339	      6.27885049	     -7.50109049	    -28.40038401	      7.51249913	      1.51100746	     -8.75366378	     -2.25108855	    -11.67311247	    105.09705865	     90.00000001	      0.00000000	      0.00000000	      2.70362137	     -8.79891586	    -17.09370728	     51.21075396	     90.00000001	      0.00000000	      0.00000000
      4.28000000	      3.71339756	     -7.60517658	     -5.01380922	     -0.84948878	      0.82972332	      0.32636480	      4.07926734	      7.78982841	    -29.22023828	     21.69817208	     -4.06453822	      0.37870454	     19.73098166	     33.80009219	     -7.50106735	     17.06961370	    -15.53390507	    -11.71975621	     67.35897913	     -9.66717074	      1.17563597	      5.01498659	      4.90935650	     -7.50106735	    -28.46260137	      7.51520536	      1.58065295	     -8.73633672	     -2.26572172	    -11.63114483	    105.05873410	     90.00000001	      0.00000000	      0.00000000	      2.75113484	     -8.76394910	    -16.97475027	     51.27232216	     90.00000001	      0.00000000	      0.00000000
      4.29000000	      3.71854172	     -7.67445928	     -4.99127553	     -0.84788250	      0.82962259	      0.32666267	      3.86211633	      7.81799619	    -29.35528399	     21.59809210	     -3.92270758	      0.37695782	     19.84228802	     33.79800483	     -7.50105918	     18.07907606	    -15.86024654	    -12.20774735	     67.40876284	     -9.87316325	      1.17650486	      5.56519668	      4.35507204	     -7.50105918	    -28.64027218	      7.60291837	      1.56354091	     -8.70712392	     -2.17385840	    -11.57673983	    105.05988177	     90.00000001	      0.00000000	      0.00000000	      2.86696657	     -8.77811760	    -16.92680970	     51.31302477	     90.00000001	      0.00000000	      0.00000000
      4.30000000	      3.63672016	     -7.77507970	     -5.03053799	     -0.84628327	      0.82942337	      0.32695109	      3.79456585	      7.94568816	    -29.37850179	     21.56511951	     -3.93677114	      0.37638234	     19.95970150	     33.86789973	     -7.50104960	     19.13097131	    -16.24233170	    -13.03620113	     67.18302105	    -10.29789189	      1.17256492	      6.52981260	      3.57513107	     -7.50104960	    -28.72702336	      7.72798678	      1.53395509	     -8.70884965	     -2.13273549	    -11.55318501	    105.06961050	     90.00000001	      0.00000000	      0.00000000	      2.91096458	     -8.76497130	    -16.86063901	     51.32540397	     90.00000001	      0.00000000	      0.00000000
      4.31000000	      3.53592804	     -7.84643327	     -5.14080219	     -0.84467008	      0.82912625	      0.32716796	      3.79186124	      8.03566244	    -29.31583274	     21.61870050	     -4.00037868	      0.37731750	     20.10367169	     34.06583071	     -7.50103580	     20.17884320	    -16.57661994	    -14.29203909	     66.79471271	    -11.06629824	      1.16578766	      7.80031160	      2.72009637	     -7.50103580	    -28.78169209	      7.77515008	      1.53627970	     -8.74959112	     -2.12175407	    -11.53876243	    105.08644951	     90.00000001	      0.00000000	      0.00000000	      2.94614455	     -8.74186073	    -16.75746547	     51.30458019	     90.00000001	      0.00000000	      0.00000000
      4.32000000	      3.53390062	     -7.82923692	     -5.23168982	     -0.84288652	      0.82897043	      0.32734478	      3.67187284	      7.92465421	    -29.36019127	     21.76546847	     -3.92199409	      0.37987909	     20.31294872	     34.29405179	     -7.50098912	     21.02119545	    -16.84589626	    -15.89653664	     65.99903874	    -11.99097693	      1.15190053	      8.67690175	      3.05392554	     -7.50098912	    -28.88387323	      7.71398239	      1.61545778	     -8.76567777	     -2.11220172	    -11.49378517	    105.11507792	     90.00000001	      0.00000000	      0.00000000	      3.01355224	     -8.82146713	    -16.50819363	     51.22571537	     90.00000001	      0.00000000	      0.00000000
      4.33000000	      3.45574572	     -7.91975484	     -5.31541703	     -0.84116632	      0.82870919	      0.32750682	      3.60490610	      8.00574914	    -29.32602520	     21.78164022	     -3.90144268	      0.38016134	     20.40814899	     34.38665471	     -7.50096135	     21.94826267	    -17.21869620	    -17.20372511	     65.12740199	    -12.68361606	      1.13668760	      9.73791493	      3.28852131	     -7.50096135	    -28.93741545	      7.77184612	      1.64970028	     -8.77602229	     -2.08239750	    -11.47256923	    105.16682534	     90.00000001	      0.00000000	      0.00000000	      3.04436296	     -8.86326271	    -16.40510250	     51.19193640	     90.00000001	      0.00000000	      0.00000000
      4.34000000	      3.46770301	     -7.98070143	     -5.36906530	     -0.83931636	      0.82852324	      0.32763991	      3.42265753	      8.03419171	    -29.40220963	     21.78112720	     -3.88625716	      0.38015238	     20.60092994	     34.54332619	     -7.50091513	     22.72708056	    -17.56510745	    -18.91551288	     63.96086094	    -13.68182180	      1.11632762	     10.72275680	      4.82842368	     -7.50091513	    -29.05330153	      7.76259657	      1.64529131	     -8.84117497	     -2.04910302	    -11.44178216	    105.25458891	     90.00000001	      0.00000000	      0.00000000	      3.12154583	     -8.94452535	    -16.27261647	     51.08178993	     90.00000001	      0.00000000	      0.00000000
